<svg data-logo="logo" xmlns="http://www.w3.org/2000/svg" viewBox="0 0 209 48">
        <g style="opacity: 1;" id="logogram" transform="translate(0, 3.5) rotate(0)"><path d="M39.8915 32.5126L39.8946 32.516L33.4244 38.193C32.0978 39.3858 30.3825 40.0615 28.5944 40.0949L28.5794 40.0952H6.40702C5.58624 40.1297 4.76833 39.976 4.01662 39.6461C3.25161 39.3103 2.57577 38.8012 2.04354 38.1589C1.51127 37.5168 1.13757 36.76 0.95185 35.9488C0.769578 35.1515 0.773533 34.3225 0.964279 33.5267L2.67136 24.8348C2.82321 24.0781 3.22456 23.3933 3.812 22.8892L3.8957 22.8174C3.71399 22.5431 3.58106 22.2391 3.50313 21.919C3.39974 21.4943 3.39612 21.0524 3.49135 20.6273L5.20183 11.9191L5.20446 11.9067C5.53734 10.3442 6.37581 8.93335 7.59154 7.89037L13.5153 2.69271C13.7894 2.37963 14.0903 2.08799 14.4158 1.82137C15.7125 0.759201 17.3261 0.154347 19.0046 0.100806L19.0326 0.0999146L41.2318 0.163463C42.0517 0.129376 42.8686 0.283095 43.6195 0.612628C44.3847 0.948397 45.0604 1.45755 45.5927 2.09969C46.1248 2.74173 46.4986 3.4987 46.6843 4.31015C46.8668 5.10767 46.8625 5.93612 46.6721 6.7314L42.4319 28.3769L42.4258 28.4032C42.0533 30.0117 41.1631 31.4545 39.8915 32.5126Z" fill="#03301D"></path><path d="M40.8853 2.16351C41.4685 2.13408 42.0505 2.24157 42.5848 2.47721C43.1191 2.71284 43.5909 3.0701 43.9625 3.5206C44.334 3.97109 44.5951 4.50221 44.7247 5.07158C44.8543 5.64095 44.849 6.2328 44.7091 6.79973L40.487 28.459C40.1905 29.746 39.4764 30.8986 38.4562 31.7372C37.436 32.5758 36.1669 33.0534 34.8469 33.0953H12.7567C12.1733 33.1243 11.5912 33.0168 11.0567 32.7812C10.5222 32.5456 10.0501 32.1884 9.67803 31.7382C9.30593 31.288 9.04405 30.7571 8.91331 30.1878C8.78257 29.6185 8.78655 29.0265 8.92493 28.459L10.6297 19.6965C10.7297 19.2688 10.9682 18.8863 11.3082 18.6082C11.6482 18.3302 12.0707 18.1722 12.5097 18.1592C16.5406 18.3025 20.4122 18.6052 24.0209 19.9036L24.8175 24.9142C24.837 25.0352 24.9008 25.1446 24.9965 25.2211C25.0922 25.2977 25.213 25.336 25.3353 25.3285C25.4759 25.3261 25.6133 25.2865 25.7336 25.2137C25.854 25.141 25.9529 25.0376 26.0204 24.9142L28.7448 19.9036L34.1937 18.1831C34.3255 18.1409 34.4441 18.0651 34.5377 17.9631C34.6313 17.8612 34.6967 17.7365 34.7275 17.6016C34.7586 17.4823 34.744 17.3555 34.6865 17.2465C34.629 17.1374 34.5328 17.0539 34.4168 17.0121L29.637 15.2993L28.8404 10.2889C28.821 10.1673 28.7575 10.057 28.662 9.97911C28.5665 9.90125 28.4457 9.86124 28.3226 9.8667C28.1812 9.86992 28.0432 9.91074 27.9228 9.98494C27.8024 10.0591 27.704 10.1641 27.6375 10.2889L24.9131 15.2993C20.9624 16.4326 16.8746 17.017 12.7646 17.036C12.5674 17.0528 12.3689 17.0224 12.1856 16.9475C12.0023 16.8727 11.8394 16.7556 11.7103 16.6055C11.5812 16.4554 11.4896 16.2767 11.443 16.0842C11.3964 15.8918 11.3961 15.691 11.4422 15.4985L13.147 6.73595C13.4419 5.44968 14.1544 4.29726 15.1733 3.45856C16.1922 2.61985 17.4601 2.1422 18.7791 2.09991L40.8853 2.16351Z" fill="#86EE02"></path></g>
        <g style="opacity: 1;" id="logotype" transform="translate(53, 1)"><path fill="#fff" d="M8.45 9.87L13.18 9.87L22.17 30.95L31.27 9.87L35.65 9.87Q35.19 11.76 35.10 13.72Q35.02 15.68 35.02 17.64L35.02 17.64L35.02 29.23Q35.02 31.19 35.10 33.15Q35.19 35.11 35.65 37L35.65 37L30.89 37Q31.34 35.11 31.43 33.15Q31.52 31.19 31.52 29.23L31.52 29.23L31.52 16.63L22.80 37L21.12 37L12.41 16.63L12.41 29.23Q12.41 31.19 12.49 33.15Q12.58 35.11 13.04 37L13.04 37L8.45 37Q8.91 35.11 8.99 33.15Q9.08 31.19 9.08 29.23L9.08 29.23L9.08 17.64Q9.08 15.68 8.99 13.72Q8.91 11.76 8.45 9.87L8.45 9.87ZM48.77 37.49L48.77 37.49Q46.81 37.49 45.08 36.72Q43.35 35.95 42.00 34.59Q40.65 33.22 39.90 31.38Q39.15 29.54 39.15 27.41L39.15 27.41Q39.15 25.27 39.90 23.42Q40.65 21.56 41.98 20.18Q43.31 18.80 45.04 18.03Q46.78 17.26 48.74 17.26L48.74 17.26Q51.36 17.26 53.15 18.61Q54.93 19.95 55.86 22.25Q56.79 24.54 56.79 27.41L56.79 27.41L42.58 27.41Q42.58 29.41 43.50 31.07Q44.43 32.73 46.02 33.71Q47.62 34.69 49.58 34.69L49.58 34.69Q51.54 34.69 52.81 33.99Q54.09 33.29 54.86 32.13L54.86 32.13L56.12 33.22Q55.74 33.99 54.88 34.99Q54.02 35.98 52.53 36.74Q51.05 37.49 48.77 37.49ZM42.86 24.78L42.86 24.78L53.15 24.78Q52.76 22.61 51.61 21.34Q50.45 20.06 48.39 20.06L48.39 20.06Q46.15 20.06 44.75 21.34Q43.35 22.61 42.86 24.78ZM68.34 37.49L68.34 37.49Q66.38 37.49 64.64 36.72Q62.91 35.95 61.56 34.59Q60.22 33.22 59.46 31.38Q58.71 29.54 58.71 27.41L58.71 27.41Q58.71 25.27 59.46 23.42Q60.22 21.56 61.55 20.18Q62.88 18.80 64.61 18.03Q66.34 17.26 68.30 17.26L68.30 17.26Q70.93 17.26 72.71 18.61Q74.50 19.95 75.42 22.25Q76.35 24.54 76.35 27.41L76.35 27.41L62.14 27.41Q62.14 29.41 63.07 31.07Q64.00 32.73 65.59 33.71Q67.18 34.69 69.14 34.69L69.14 34.69Q71.10 34.69 72.38 33.99Q73.66 33.29 74.43 32.13L74.43 32.13L75.69 33.22Q75.30 33.99 74.44 34.99Q73.59 35.98 72.10 36.74Q70.61 37.49 68.34 37.49ZM62.42 24.78L62.42 24.78L72.71 24.78Q72.33 22.61 71.17 21.34Q70.02 20.06 67.95 20.06L67.95 20.06Q65.71 20.06 64.31 21.34Q62.91 22.61 62.42 24.78ZM85.77 37.49L85.77 37.49Q80.83 37.49 80.83 31.19L80.83 31.19L80.83 20.16Q80.83 20.16 80.34 20.22Q79.85 20.27 79.19 20.36Q78.52 20.44 77.93 20.55L77.93 20.55L77.93 20.16L83.81 13.69L84.16 13.69L84.16 17.75L89.09 17.75L89.44 20.55Q88.74 20.41 88.06 20.34Q87.38 20.27 86.47 20.22Q85.56 20.16 84.16 20.16L84.16 20.16L84.16 31.05Q84.16 33.01 84.70 33.78Q85.24 34.55 86.61 34.55L86.61 34.55Q87.48 34.55 88.04 34.20Q88.60 33.85 89.06 33.19L89.06 33.19L90.04 34.52Q89.51 35.81 88.46 36.65Q87.41 37.49 85.77 37.49ZM91.44 12.29L94.31 9.42L97.21 12.29L94.31 15.19L91.44 12.29ZM93.01 29.23L93.01 29.23L93.01 25.45Q93.01 23.56 92.87 22.35Q92.73 21.14 92.45 20.30Q92.17 19.46 91.68 18.69L91.68 18.69L91.68 18.48L96.34 17.50L96.34 29.23Q96.34 31.19 96.42 33.15Q96.51 35.11 96.97 37L96.97 37L92.38 37Q92.84 35.11 92.92 33.15Q93.01 31.19 93.01 29.23ZM110.90 17.75L111.25 20.55Q110.55 20.41 109.85 20.34Q109.15 20.27 108.17 20.22Q107.19 20.16 105.61 20.16L105.61 20.16L105.61 29.27Q105.61 32.13 105.75 33.85Q105.89 35.56 106.24 37L106.24 37L101.83 37Q102.18 35.56 102.32 33.85Q102.46 32.13 102.46 29.27L102.46 29.27L102.46 20.23Q101.45 20.27 100.73 20.34Q100.01 20.41 99.31 20.55L99.31 20.55L99.66 17.75L102.46 17.75Q102.46 16.35 102.53 14.91Q102.60 13.48 103.09 12.25Q103.58 11.03 104.79 10.28Q106.00 9.52 108.24 9.52L108.24 9.52Q109.78 9.52 110.77 9.89Q111.77 10.26 112.51 10.64L112.51 10.64L111.18 13.76L111.07 13.76Q111.04 13.69 110.74 13.36Q110.44 13.02 109.79 12.71Q109.15 12.39 108.03 12.39L108.03 12.39Q106.94 12.39 106.43 12.78Q105.93 13.16 105.77 13.88Q105.61 14.60 105.65 15.58Q105.68 16.56 105.61 17.75L105.61 17.75L110.90 17.75ZM129.97 24.75L124.93 37Q123.64 40.08 122.90 42.30Q122.17 44.52 121.89 46.06L121.89 46.06L117.13 46.06Q118.18 44.49 119.30 42.25Q120.42 40.01 121.71 36.86L121.71 36.86L116.74 24.75Q115.66 22.13 114.87 20.58Q114.08 19.04 113.21 17.75L113.21 17.75L117.90 17.75Q118.11 19.01 118.60 20.50Q119.09 21.98 120.07 24.47L120.07 24.47L123.39 33.08L126.86 24.47Q127.87 21.98 128.34 20.50Q128.81 19.01 129.06 17.75L129.06 17.75L133.50 17.75Q132.63 19.04 131.86 20.58Q131.09 22.13 129.97 24.75L129.97 24.75ZM151.32 24.75L146.28 37Q144.99 40.08 144.25 42.30Q143.52 44.52 143.24 46.06L143.24 46.06L138.47 46.06Q139.53 44.49 140.65 42.25Q141.77 40.01 143.06 36.86L143.06 36.86L138.09 24.75Q137.00 22.13 136.22 20.58Q135.43 19.04 134.56 17.75L134.56 17.75L139.25 17.75Q139.46 19.01 139.94 20.50Q140.44 21.98 141.41 24.47L141.41 24.47L144.74 33.08L148.21 24.47Q149.22 21.98 149.69 20.50Q150.16 19.01 150.41 17.75L150.41 17.75L154.86 17.75Q153.98 19.04 153.21 20.58Q152.44 22.13 151.32 24.75L151.32 24.75Z"></path></g>
        
      </svg>